<?xml version="1.0" encoding="UTF-8" standalone="no"?>
<!-- Created with Inkscape (http://www.inkscape.org/) -->

<svg
   xmlns:dc="http://purl.org/dc/elements/1.1/"
   xmlns:cc="http://creativecommons.org/ns#"
   xmlns:rdf="http://www.w3.org/1999/02/22-rdf-syntax-ns#"
   xmlns:svg="http://www.w3.org/2000/svg"
   xmlns="http://www.w3.org/2000/svg"
   xmlns:sodipodi="http://sodipodi.sourceforge.net/DTD/sodipodi-0.dtd"
   xmlns:inkscape="http://www.inkscape.org/namespaces/inkscape"
   width="47.889584mm"
   height="54.9034mm"
   viewBox="0 0 47.889584 54.9034"
   version="1.1"
   id="svg875"
   inkscape:version="0.92.4 (unknown)"
   sodipodi:docname="nm_sticker03.svg">
  <defs
     id="defs869" />
  <sodipodi:namedview
     id="base"
     pagecolor="#ffffff"
     bordercolor="#666666"
     borderopacity="1.0"
     inkscape:pageopacity="0.0"
     inkscape:pageshadow="2"
     inkscape:zoom="0.98994949"
     inkscape:cx="-343.27723"
     inkscape:cy="-18.266293"
     inkscape:document-units="mm"
     inkscape:current-layer="layer1"
     showgrid="false"
     fit-margin-top="0"
     fit-margin-left="0"
     fit-margin-right="0"
     fit-margin-bottom="0"
     inkscape:window-width="1920"
     inkscape:window-height="1136"
     inkscape:window-x="1280"
     inkscape:window-y="27"
     inkscape:window-maximized="1" />
  <metadata
     id="metadata872">
    <rdf:RDF>
      <cc:Work
         rdf:about="">
        <dc:format>image/svg+xml</dc:format>
        <dc:type
           rdf:resource="http://purl.org/dc/dcmitype/StillImage" />
        <dc:title></dc:title>
      </cc:Work>
    </rdf:RDF>
  </metadata>
  <g
     inkscape:label="Layer 1"
     inkscape:groupmode="layer"
     id="layer1"
     transform="translate(-81.055209,-121.0483)">
    <polygon
       transform="matrix(0.26458333,0,0,0.26458333,81.055209,120.85104)"
       id="Polygon-1"
       points="-1.5827339e-12,52.622771 90.5,0.74554102 181,52.622771 181,156.37723 90.5,208.25446 -1.5258905e-12,156.37723 "
       style="fill:#bb0000;fill-opacity:1;fill-rule:evenodd;stroke:none;stroke-width:1" />
    <polygon
       transform="matrix(0.26458333,0,0,0.26458333,81.055209,120.85104)"
       id="Polygon-1-Copy"
       points="11.810617,149.56493 11.810617,59.435072 90.5,14.370145 169.18938,59.435072 169.18938,149.56493 90.5,194.62986 "
       style="fill:#cc0000;fill-opacity:1;fill-rule:evenodd;stroke:none;stroke-width:1"
       inkscape:label="Polygon-2" />
    <g
       id="g981"
       transform="matrix(1.0214286,0,0,1.0214286,-2.3225275,-2.3090111)">
      <g
         inkscape:label="logo"
         style="stroke-width:0.87496203"
         transform="matrix(0.00426687,0,0,0.00426687,74.275548,131.38514)"
         id="g1538">
        <path
           sodipodi:nodetypes="ccccccccccccccccccccccccc"
           style="fill:#ffffff;fill-opacity:1;stroke:none;stroke-width:1.43124211"
           d="M 5029.9666,-215.25215 V 4157.9482 h 853.3745 V 1209.6083 l 627.4666,630.5285 -296.1503,297.5952 828.9187,833.0503 296.5727,-298.8683 1478.8184,1486.0342 1.6018,1.6095 1.6016,-1.6095 h 582.6059 V -215.24452 H 8820.5686 L 7490.5865,1121.2273 7358.5311,988.27476 7096.6167,1251.4682 5651.6129,-215.25215 Z M 8577.4587,1206.4725 v 1531.3676 l -651.8359,-655.0173 260.2277,-261.4989 -110.0444,-110.8354 z"
           id="path1534"
           inkscape:connector-curvature="0" />
        <path
           sodipodi:nodetypes="ccccccccccccccccccccc"
           style="fill:#cc0000;fill-opacity:1;stroke:none;stroke-width:1.43124211"
           d="m 7360.1336,1196.5577 -935.0009,939.5654 108.7309,111.5086 248.8436,-250.0604 42.4166,44.3192 44.1019,42.6221 -248.8434,250.0585 77.4949,77.8737 248.0001,-249.2123 42.5016,44.2339 44.0169,42.6214 -236.8198,258.2846 69.9416,70.285 248.0871,-249.2115 42.4169,44.2339 44.0168,42.7063 -248.0007,249.2114 94.8286,95.2918 935,-939.5654 -311.6662,-311.577 z"
           id="path1536"
           inkscape:connector-curvature="0" />
      </g>
      <g
         inkscape:label="g1548"
         id="g1548"
         transform="matrix(0.14918522,0,0,0.14918522,70.31712,146.41059)"
         style="fill:#ffffff;fill-opacity:1;fill-rule:nonzero;stroke:none;stroke-width:1.02106726;image-rendering:auto">
        <g
           id="text1542"
           style="font-style:normal;font-variant:normal;font-weight:bold;font-stretch:normal;font-size:42.33208466px;line-height:1.25;font-family:Montserrat;-inkscape-font-specification:'Montserrat, Bold';font-variant-ligatures:normal;font-variant-caps:small-caps;font-variant-numeric:normal;font-feature-settings:normal;text-align:start;letter-spacing:-3.62478876px;word-spacing:0px;writing-mode:lr-tb;text-anchor:start;fill:#ffffff;fill-opacity:1;fill-rule:nonzero;stroke:none;stroke-width:1.02106726"
           aria-label="Network">
          <path
             inkscape:connector-curvature="0"
             id="path16"
             style="font-style:normal;font-variant:normal;font-weight:bold;font-stretch:normal;font-size:43.5655365px;font-family:Montserrat;-inkscape-font-specification:'Montserrat, Bold';font-variant-ligatures:normal;font-variant-caps:small-caps;font-variant-numeric:normal;font-feature-settings:normal;text-align:start;letter-spacing:-3.62478876px;writing-mode:lr-tb;text-anchor:start;fill:#ffffff;fill-opacity:1"
             d="M 160.11453,33.334168 V 51.849521 L 144.95372,33.334168 h -5.83778 v 30.495876 h 6.97049 V 45.314691 l 15.20437,18.515353 h 5.79421 V 33.334168 Z" />
          <path
             inkscape:connector-curvature="0"
             id="path18"
             style="font-style:normal;font-variant:normal;font-weight:bold;font-stretch:normal;font-size:43.5655365px;font-family:Montserrat;-inkscape-font-specification:'Montserrat, Bold';font-variant-ligatures:normal;font-variant-caps:small-caps;font-variant-numeric:normal;font-feature-settings:normal;text-align:start;letter-spacing:-3.62478876px;writing-mode:lr-tb;text-anchor:start;fill:#ffffff;fill-opacity:1"
             d="m 177.2528,58.558614 v -4.922906 h 11.41417 V 48.625672 H 177.2528 V 44.05129 h 12.8954 v -5.27143 h -19.69162 v 25.050184 h 20.17084 v -5.27143 z" />
          <path
             inkscape:connector-curvature="0"
             id="path20"
             style="font-style:normal;font-variant:normal;font-weight:bold;font-stretch:normal;font-size:43.5655365px;font-family:Montserrat;-inkscape-font-specification:'Montserrat, Bold';font-variant-ligatures:normal;font-variant-caps:small-caps;font-variant-numeric:normal;font-feature-settings:normal;text-align:start;letter-spacing:-3.62478876px;writing-mode:lr-tb;text-anchor:start;fill:#ffffff;fill-opacity:1"
             d="m 196.72319,63.830044 h 6.88336 V 44.138421 h 7.88536 V 38.77986 h -22.65408 v 5.358561 h 7.88536 z" />
          <path
             inkscape:connector-curvature="0"
             id="path22"
             style="font-style:normal;font-variant:normal;font-weight:bold;font-stretch:normal;font-size:43.5655365px;font-family:Montserrat;-inkscape-font-specification:'Montserrat, Bold';font-variant-ligatures:normal;font-variant-caps:small-caps;font-variant-numeric:normal;font-feature-settings:normal;text-align:start;letter-spacing:-3.62478876px;writing-mode:lr-tb;text-anchor:start;fill:#ffffff;fill-opacity:1"
             d="m 243.35874,38.77986 -5.48925,16.685601 -5.315,-16.685601 h -6.36057 l -5.48926,16.380642 -5.27143,-16.380642 h -7.10118 l 8.32102,25.050184 h 7.36257 l 5.22787,-15.857855 5.09717,15.857855 h 7.36257 L 249.9807,38.77986 Z" />
          <path
             inkscape:connector-curvature="0"
             id="path24"
             style="font-style:normal;font-variant:normal;font-weight:bold;font-stretch:normal;font-size:43.5655365px;font-family:Montserrat;-inkscape-font-specification:'Montserrat, Bold';font-variant-ligatures:normal;font-variant-caps:small-caps;font-variant-numeric:normal;font-feature-settings:normal;text-align:start;letter-spacing:-3.62478876px;writing-mode:lr-tb;text-anchor:start;fill:#ffffff;fill-opacity:1"
             d="m 261.84822,64.309265 c 8.10319,0 14.07167,-5.489258 14.07167,-12.98253 0,-7.536838 -5.96848,-13.026096 -14.07167,-13.026096 -8.10319,0 -14.07166,5.489258 -14.07166,13.026096 0,7.493272 5.96847,12.98253 14.07166,12.98253 z m 0,-5.619955 c -4.09516,0 -7.14474,-3.093153 -7.14474,-7.362575 0,-4.312988 3.04958,-7.406141 7.14474,-7.406141 4.09516,0 7.10119,3.093153 7.10119,7.406141 0,4.269422 -3.00603,7.362575 -7.10119,7.362575 z" />
          <path
             inkscape:connector-curvature="0"
             id="path26"
             style="font-style:normal;font-variant:normal;font-weight:bold;font-stretch:normal;font-size:43.5655365px;font-family:Montserrat;-inkscape-font-specification:'Montserrat, Bold';font-variant-ligatures:normal;font-variant-caps:small-caps;font-variant-numeric:normal;font-feature-settings:normal;text-align:start;letter-spacing:-3.62478876px;writing-mode:lr-tb;text-anchor:start;fill:#ffffff;fill-opacity:1"
             d="m 292.97988,63.830044 h 7.40615 l -5.57639,-7.885362 c 3.22385,-1.481229 5.09717,-4.225857 5.09717,-7.928928 0,-5.794216 -4.40012,-9.235894 -11.28348,-9.235894 h -11.41417 v 25.050184 h 6.88336 v -6.709093 h 4.22585 z m 0,-15.81429 c 0,2.43967 -1.61192,3.877333 -4.83577,3.877333 h -4.05159 v -7.754666 h 4.05159 c 3.22385,0 4.83577,1.394097 4.83577,3.877333 z" />
          <path
             inkscape:connector-curvature="0"
             id="path28"
             style="font-style:normal;font-variant:normal;font-weight:bold;font-stretch:normal;font-size:43.5655365px;font-family:Montserrat;-inkscape-font-specification:'Montserrat, Bold';font-variant-ligatures:normal;font-variant-caps:small-caps;font-variant-numeric:normal;font-feature-settings:normal;text-align:start;letter-spacing:-3.62478876px;writing-mode:lr-tb;text-anchor:start;fill:#ffffff;fill-opacity:1"
             d="m 318.78498,63.830044 h 8.01605 L 315.82252,49.932638 326.23468,38.77986 h -7.5804 L 308.45994,49.453417 V 38.77986 h -6.79622 v 25.050184 h 6.79622 v -6.317003 l 2.83176,-2.918891 z" />
        </g>
        <g
           id="text1546"
           style="font-style:normal;font-variant:normal;font-weight:bold;font-stretch:normal;font-size:42.33208466px;line-height:1.25;font-family:Montserrat;-inkscape-font-specification:'Montserrat, Bold';font-variant-ligatures:normal;font-variant-caps:small-caps;font-variant-numeric:normal;font-feature-settings:normal;text-align:start;letter-spacing:0px;word-spacing:0px;writing-mode:lr-tb;text-anchor:start;fill:#ffffff;fill-opacity:1;fill-rule:nonzero;stroke:none;stroke-width:1.02106726"
           aria-label="Manager">
          <path
             inkscape:connector-curvature="0"
             id="path31"
             style="font-style:normal;font-variant:normal;font-weight:bold;font-stretch:normal;font-size:42.88482285px;font-family:Montserrat;-inkscape-font-specification:'Montserrat, Bold';font-variant-ligatures:normal;font-variant-caps:small-caps;font-variant-numeric:normal;font-feature-settings:normal;text-align:start;letter-spacing:-2.45056129px;writing-mode:lr-tb;text-anchor:start;fill:#ffffff;fill-opacity:1"
             d="m 172.951,105.36586 -0.0858,-30.019376 h -5.70368 L 156.09727,94.001382 144.86144,75.346484 h -5.74656 v 30.019376 h 6.51849 V 87.740198 l 8.79139,14.452182 h 3.13059 l 8.83427,-14.838146 0.0429,18.011626 z" />
          <path
             inkscape:connector-curvature="0"
             id="path33"
             style="font-style:normal;font-variant:normal;font-weight:bold;font-stretch:normal;font-size:42.88482285px;font-family:Montserrat;-inkscape-font-specification:'Montserrat, Bold';font-variant-ligatures:normal;font-variant-caps:small-caps;font-variant-numeric:normal;font-feature-settings:normal;text-align:start;letter-spacing:-2.45056129px;writing-mode:lr-tb;text-anchor:start;fill:#ffffff;fill-opacity:1"
             d="m 195.84872,105.36586 h 6.69003 L 191.43158,80.707087 h -6.69003 l -11.06428,24.658773 h 6.56137 l 2.05847,-4.88887 h 11.53602 z m -11.49313,-9.77774 3.73098,-8.920043 3.68809,8.920043 z" />
          <path
             inkscape:connector-curvature="0"
             id="path35"
             style="font-style:normal;font-variant:normal;font-weight:bold;font-stretch:normal;font-size:42.88482285px;font-family:Montserrat;-inkscape-font-specification:'Montserrat, Bold';font-variant-ligatures:normal;font-variant-caps:small-caps;font-variant-numeric:normal;font-feature-settings:normal;text-align:start;letter-spacing:-2.45056129px;writing-mode:lr-tb;text-anchor:start;fill:#ffffff;fill-opacity:1"
             d="M 219.91371,80.707087 V 94.344461 L 208.54923,80.707087 h -5.57503 v 24.658773 h 6.64715 V 91.771371 l 11.36448,13.594489 h 5.57503 V 80.707087 Z" />
          <path
             inkscape:connector-curvature="0"
             id="path37"
             style="font-style:normal;font-variant:normal;font-weight:bold;font-stretch:normal;font-size:42.88482285px;font-family:Montserrat;-inkscape-font-specification:'Montserrat, Bold';font-variant-ligatures:normal;font-variant-caps:small-caps;font-variant-numeric:normal;font-feature-settings:normal;text-align:start;letter-spacing:-2.45056129px;writing-mode:lr-tb;text-anchor:start;fill:#ffffff;fill-opacity:1"
             d="m 249.16039,105.36586 h 6.69003 L 244.74325,80.707087 h -6.69003 l -11.06428,24.658773 h 6.56138 l 2.05847,-4.88887 h 11.53601 z m -11.49313,-9.77774 3.73098,-8.920043 3.68809,8.920043 z" />
          <path
             inkscape:connector-curvature="0"
             id="path39"
             style="font-style:normal;font-variant:normal;font-weight:bold;font-stretch:normal;font-size:42.88482285px;font-family:Montserrat;-inkscape-font-specification:'Montserrat, Bold';font-variant-ligatures:normal;font-variant-caps:small-caps;font-variant-numeric:normal;font-feature-settings:normal;text-align:start;letter-spacing:-2.45056129px;writing-mode:lr-tb;text-anchor:start;fill:#ffffff;fill-opacity:1"
             d="m 272.07754,99.533524 c -1.20077,0.514616 -2.44443,0.771926 -3.85963,0.771926 -4.37425,0 -7.33331,-2.959052 -7.33331,-7.247534 0,-4.374252 3.04483,-7.29042 7.24754,-7.29042 2.44443,0 4.54579,0.900581 6.2183,2.873283 l 4.46002,-3.988288 c -2.44443,-2.959053 -5.96099,-4.417137 -10.76409,-4.417137 -8.10523,0 -13.98045,5.403487 -13.98045,12.822562 0,7.376194 5.74656,12.779674 14.02333,12.779674 3.47368,0 7.41908,-1.115 10.16371,-3.13059 v -9.992163 h -6.17542 z" />
          <path
             inkscape:connector-curvature="0"
             id="path41"
             style="font-style:normal;font-variant:normal;font-weight:bold;font-stretch:normal;font-size:42.88482285px;font-family:Montserrat;-inkscape-font-specification:'Montserrat, Bold';font-variant-ligatures:normal;font-variant-caps:small-caps;font-variant-numeric:normal;font-feature-settings:normal;text-align:start;letter-spacing:-2.45056129px;writing-mode:lr-tb;text-anchor:start;fill:#ffffff;fill-opacity:1"
             d="M 288.33347,100.1768 V 95.330811 H 299.5693 V 90.399057 H 288.33347 V 85.89615 h 12.69391 v -5.189063 h -19.38394 v 24.658773 h 19.85567 v -5.18906 z" />
          <path
             inkscape:connector-curvature="0"
             id="path43"
             style="font-style:normal;font-variant:normal;font-weight:bold;font-stretch:normal;font-size:42.88482285px;font-family:Montserrat;-inkscape-font-specification:'Montserrat, Bold';font-variant-ligatures:normal;font-variant-caps:small-caps;font-variant-numeric:normal;font-feature-settings:normal;text-align:start;letter-spacing:-2.45056129px;writing-mode:lr-tb;text-anchor:start;fill:#ffffff;fill-opacity:1"
             d="m 319.50997,105.36586 h 7.29042 l -5.48926,-7.762153 c 3.17348,-1.458084 5.01753,-4.159828 5.01753,-7.805038 0,-5.703681 -4.33137,-9.091582 -11.10717,-9.091582 h -11.23583 v 24.658773 h 6.77581 v -6.604263 h 4.15982 z m 0,-15.567191 c 0,2.40155 -1.58674,3.81675 -4.76022,3.81675 h -3.98828 V 85.98192 h 3.98828 c 3.17348,0 4.76022,1.372314 4.76022,3.816749 z" />
        </g>
      </g>
    </g>
  </g>
</svg>
