<?xml version="1.0" encoding="UTF-8" standalone="no"?>
<!-- Created with Inkscape (http://www.inkscape.org/) -->

<svg
   xmlns:dc="http://purl.org/dc/elements/1.1/"
   xmlns:cc="http://creativecommons.org/ns#"
   xmlns:rdf="http://www.w3.org/1999/02/22-rdf-syntax-ns#"
   xmlns:svg="http://www.w3.org/2000/svg"
   xmlns="http://www.w3.org/2000/svg"
   xmlns:sodipodi="http://sodipodi.sourceforge.net/DTD/sodipodi-0.dtd"
   xmlns:inkscape="http://www.inkscape.org/namespaces/inkscape"
   width="49.514881mm"
   height="49.514881mm"
   viewBox="0 0 49.514881 49.514881"
   version="1.1"
   id="svg18"
   inkscape:version="0.92.4 (unknown)"
   sodipodi:docname="nm_logo_red_reverse.svg"
   inkscape:export-filename="/home/fgiudici/Pictures/NM_Logo/final/nm_logo_red_reverse.png"
   inkscape:export-xdpi="96"
   inkscape:export-ydpi="96">
  <defs
     id="defs12" />
  <sodipodi:namedview
     id="base"
     pagecolor="#ffffff"
     bordercolor="#666666"
     borderopacity="1.0"
     inkscape:pageopacity="0.0"
     inkscape:pageshadow="2"
     inkscape:zoom="1.979899"
     inkscape:cx="180.72357"
     inkscape:cy="24.673522"
     inkscape:document-units="mm"
     inkscape:current-layer="layer1"
     showgrid="false"
     fit-margin-top="0"
     fit-margin-left="0"
     fit-margin-right="0"
     fit-margin-bottom="0"
     inkscape:window-width="1920"
     inkscape:window-height="1136"
     inkscape:window-x="1280"
     inkscape:window-y="27"
     inkscape:window-maximized="1" />
  <metadata
     id="metadata15">
    <rdf:RDF>
      <cc:Work
         rdf:about="">
        <dc:format>image/svg+xml</dc:format>
        <dc:type
           rdf:resource="http://purl.org/dc/dcmitype/StillImage" />
        <dc:title />
      </cc:Work>
    </rdf:RDF>
  </metadata>
  <g
     inkscape:label="Layer 1"
     inkscape:groupmode="layer"
     id="layer1"
     transform="translate(-53.113205,-107.34791)">
    <rect
       style="fill:#cc0000;fill-opacity:1;fill-rule:nonzero;stroke:none;stroke-width:0.37634408;stroke-miterlimit:4;stroke-dasharray:none;stroke-opacity:1"
       id="rect22"
       width="50"
       height="50"
       x="53.113205"
       y="106.86279" />
    <path
       inkscape:connector-curvature="0"
       id="path1482"
       d="m 59.212439,113.05379 v 37.60416 h 7.373782 v -25.35211 l 5.42177,5.42177 -2.558964,2.55896 7.162478,7.1632 2.562608,-2.56988 12.778066,12.77806 0.01384,0.0138 0.01383,-0.0138 h 5.034123 v -37.6041 h -5.047978 l -11.492025,11.49202 -1.14104,-1.14322 -2.263139,2.26313 -12.485883,-12.61199 z m 30.652933,12.22509 v 13.16788 l -5.632349,-5.63234 2.248566,-2.24857 -0.950867,-0.95305 z"
       style="fill:#ffffff;fill-opacity:1;stroke:none;stroke-width:0.00819725"
       sodipodi:nodetypes="ccccccccccccccccccccccccc" />
    <path
       inkscape:connector-curvature="0"
       id="path1498"
       d="m 79.466635,125.13713 -8.079092,8.0791 0.939515,0.95884 2.150199,-2.15021 0.3665,0.38108 0.381079,0.36651 -2.150199,2.1502 0.66962,0.66961 2.14291,-2.14292 0.367233,0.38035 0.380346,0.36651 -2.046305,2.22093 0.604355,0.60436 2.143656,-2.14291 0.3665,0.38034 0.380345,0.36723 -2.142909,2.14293 0.819388,0.81938 8.079091,-8.07911 -2.693032,-2.67919 z"
       style="fill:#cc0000;fill-opacity:1;stroke:none;stroke-width:0.00819725"
       sodipodi:nodetypes="ccccccccccccccccccccc" />
  </g>
</svg>
