<?xml version="1.0" encoding="UTF-8" standalone="no"?>
<!-- Created with Inkscape (http://www.inkscape.org/) -->

<svg
   xmlns:dc="http://purl.org/dc/elements/1.1/"
   xmlns:cc="http://creativecommons.org/ns#"
   xmlns:rdf="http://www.w3.org/1999/02/22-rdf-syntax-ns#"
   xmlns:svg="http://www.w3.org/2000/svg"
   xmlns="http://www.w3.org/2000/svg"
   xmlns:sodipodi="http://sodipodi.sourceforge.net/DTD/sodipodi-0.dtd"
   xmlns:inkscape="http://www.inkscape.org/namespaces/inkscape"
   width="160mm"
   height="50mm"
   viewBox="0 0 160.00002 50"
   version="1.1"
   id="svg139"
   inkscape:version="0.92.4 (unknown)"
   sodipodi:docname="nm_logotype.svg">
  <defs
     id="defs133" />
  <sodipodi:namedview
     id="base"
     pagecolor="#ffffff"
     bordercolor="#666666"
     borderopacity="1.0"
     inkscape:pageopacity="0.0"
     inkscape:pageshadow="2"
     inkscape:zoom="0.98994949"
     inkscape:cx="304.81511"
     inkscape:cy="-94.216708"
     inkscape:document-units="mm"
     inkscape:current-layer="text1510"
     showgrid="true"
     fit-margin-top="0"
     fit-margin-left="0"
     fit-margin-right="0"
     fit-margin-bottom="0"
     inkscape:window-width="1920"
     inkscape:window-height="1136"
     inkscape:window-x="1280"
     inkscape:window-y="27"
     inkscape:window-maximized="1">
    <inkscape:grid
       type="xygrid"
       id="grid48"
       originx="-14.623603"
       originy="-3.9577414" />
  </sodipodi:namedview>
  <metadata
     id="metadata136">
    <rdf:RDF>
      <cc:Work
         rdf:about="">
        <dc:format>image/svg+xml</dc:format>
        <dc:type
           rdf:resource="http://purl.org/dc/dcmitype/StillImage" />
        <dc:title></dc:title>
      </cc:Work>
    </rdf:RDF>
  </metadata>
  <g
     inkscape:label="Layer 1"
     inkscape:groupmode="layer"
     id="layer1"
     transform="translate(-18.827967,-33.154443)">
    <g
       id="g898"
       transform="matrix(1.3356542,0,0,1.3421721,-6.3197222,-28.453313)">
      <path
         inkscape:connector-curvature="0"
         id="path1482"
         d="m 18.827994,45.901532 v 37.239326 h 7.302244 V 58.034709 l 5.369169,5.369172 -2.53414,2.534137 7.09299,7.09371 2.537746,-2.54496 12.654094,12.65409 0.01372,0.01372 0.01372,-0.01372 h 4.985296 V 45.901588 H 51.263822 L 39.883291,57.282115 38.753319,56.149981 36.512137,58.391167 24.147391,45.901532 Z m 30.35554,12.106481 v 13.04013 l -5.577702,-5.577699 2.226749,-2.226753 -0.941643,-0.943805 z"
         style="fill:#32557d;fill-opacity:1;stroke:none;stroke-width:0.00811772"
         sodipodi:nodetypes="ccccccccccccccccccccccccc" />
      <path
         inkscape:connector-curvature="0"
         id="path1498"
         d="m 38.767002,57.923589 -8.000708,8.000719 0.9304,0.949536 2.129339,-2.129343 0.362945,0.377378 0.377382,0.362949 -2.129339,2.129339 0.663121,0.663118 2.122121,-2.122124 0.363668,0.376654 0.376659,0.362953 -2.026453,2.199375 0.59849,0.598505 2.122859,-2.122124 0.362945,0.376658 0.376655,0.363669 -2.122117,2.122124 0.811435,0.811435 8.000711,-8.000719 -2.666904,-2.653194 z"
         style="fill:#ffffff;stroke:none;stroke-width:0.00811772"
         sodipodi:nodetypes="ccccccccccccccccccccc" />
    </g>
    <g
       style="fill:#000000;fill-opacity:1;fill-rule:nonzero;stroke:none;stroke-width:0.67844689;image-rendering:auto"
       transform="matrix(0.52342598,0,0,0.52342598,7.5660564,14.086132)"
       id="g1512">
      <g
         aria-label="Network"
         style="font-style:normal;font-variant:normal;font-weight:bold;font-stretch:normal;font-size:42.33237076px;line-height:1.25;font-family:Montserrat;-inkscape-font-specification:'Montserrat, Bold';font-variant-ligatures:normal;font-variant-caps:small-caps;font-variant-numeric:normal;font-feature-settings:normal;text-align:start;letter-spacing:0px;word-spacing:0px;writing-mode:lr-tb;text-anchor:start;fill:#000000;fill-opacity:1;fill-rule:nonzero;stroke:none;stroke-width:0.67844689"
         id="text1506">
        <path
           d="M 159.6069,48.258049 V 66.391555 L 144.75875,48.258049 h -5.71738 V 78.125 h 6.82673 V 59.991494 L 160.75891,78.125 h 5.67472 V 48.258049 Z"
           style="font-style:normal;font-variant:normal;font-weight:bold;font-stretch:normal;font-size:42.6670723px;font-family:Montserrat;-inkscape-font-specification:'Montserrat, Bold';font-variant-ligatures:normal;font-variant-caps:small-caps;font-variant-numeric:normal;font-feature-settings:normal;text-align:start;letter-spacing:-3.62945271;writing-mode:lr-tb;text-anchor:start;fill:#000000;stroke-width:0.67844689"
           id="path19"
           inkscape:connector-curvature="0" />
        <path
           d="m 176.3123,72.962284 v -4.821379 h 11.17878 V 63.234192 H 176.3123 v -4.480043 h 12.62946 V 53.591433 H 169.65624 V 78.125 h 19.75486 v -5.162716 z"
           style="font-style:normal;font-variant:normal;font-weight:bold;font-stretch:normal;font-size:42.6670723px;font-family:Montserrat;-inkscape-font-specification:'Montserrat, Bold';font-variant-ligatures:normal;font-variant-caps:small-caps;font-variant-numeric:normal;font-feature-settings:normal;text-align:start;letter-spacing:-3.62945271;writing-mode:lr-tb;text-anchor:start;fill:#000000;stroke-width:0.67844689"
           id="path21"
           inkscape:connector-curvature="0" />
        <path
           d="m 195.30173,78.125 h 6.7414 V 58.839483 h 7.72274 v -5.24805 h -22.18688 v 5.24805 h 7.72274 z"
           style="font-style:normal;font-variant:normal;font-weight:bold;font-stretch:normal;font-size:42.6670723px;font-family:Montserrat;-inkscape-font-specification:'Montserrat, Bold';font-variant-ligatures:normal;font-variant-caps:small-caps;font-variant-numeric:normal;font-feature-settings:normal;text-align:start;letter-spacing:-3.62945271;writing-mode:lr-tb;text-anchor:start;fill:#000000;stroke-width:0.67844689"
           id="path23"
           inkscape:connector-curvature="0" />
        <path
           d="m 240.89608,53.591433 -5.37605,16.341489 -5.20538,-16.341489 h -6.22939 l -5.37606,16.04282 -5.16271,-16.04282 h -6.95473 L 214.74117,78.125 h 7.21073 L 227.07195,62.594186 232.064,78.125 h 7.21073 l 8.10675,-24.533567 z"
           style="font-style:normal;font-variant:normal;font-weight:bold;font-stretch:normal;font-size:42.6670723px;font-family:Montserrat;-inkscape-font-specification:'Montserrat, Bold';font-variant-ligatures:normal;font-variant-caps:small-caps;font-variant-numeric:normal;font-feature-settings:normal;text-align:start;letter-spacing:-3.62945271;writing-mode:lr-tb;text-anchor:start;fill:#000000;stroke-width:0.67844689"
           id="path25"
           inkscape:connector-curvature="0" />
        <path
           d="m 258.92484,78.594338 c 7.93607,0 13.78146,-5.376051 13.78146,-12.714788 0,-7.381403 -5.84539,-12.757454 -13.78146,-12.757454 -7.93608,0 -13.78147,5.376051 -13.78147,12.757454 0,7.338737 5.84539,12.714788 13.78147,12.714788 z m 0,-5.504053 c -4.01071,0 -6.9974,-3.029362 -6.9974,-7.210735 0,-4.22404 2.98669,-7.253402 6.9974,-7.253402 4.0107,0 6.95473,3.029362 6.95473,7.253402 0,4.181373 -2.94403,7.210735 -6.95473,7.210735 z"
           style="font-style:normal;font-variant:normal;font-weight:bold;font-stretch:normal;font-size:42.6670723px;font-family:Montserrat;-inkscape-font-specification:'Montserrat, Bold';font-variant-ligatures:normal;font-variant-caps:small-caps;font-variant-numeric:normal;font-feature-settings:normal;text-align:start;letter-spacing:-3.62945271;writing-mode:lr-tb;text-anchor:start;fill:#000000;stroke-width:0.67844689"
           id="path27"
           inkscape:connector-curvature="0" />
        <path
           d="m 289.33503,78.125 h 7.2534 l -5.46138,-7.72274 c 3.15736,-1.450681 4.99205,-4.138706 4.99205,-7.765407 0,-5.674721 -4.30938,-9.04542 -11.05078,-9.04542 H 273.88955 V 78.125 h 6.7414 v -6.570729 h 4.13871 z m 0,-15.488147 c 0,2.389356 -1.57868,3.797369 -4.73604,3.797369 h -3.96804 v -7.594739 h 3.96804 c 3.15736,0 4.73604,1.365347 4.73604,3.79737 z"
           style="font-style:normal;font-variant:normal;font-weight:bold;font-stretch:normal;font-size:42.6670723px;font-family:Montserrat;-inkscape-font-specification:'Montserrat, Bold';font-variant-ligatures:normal;font-variant-caps:small-caps;font-variant-numeric:normal;font-feature-settings:normal;text-align:start;letter-spacing:-3.62945271;writing-mode:lr-tb;text-anchor:start;fill:#000000;stroke-width:0.67844689"
           id="path29"
           inkscape:connector-curvature="0" />
        <path
           d="m 314.52853,78.125 h 7.85074 L 311.62717,64.514204 321.8246,53.591433 h -7.42407 l -9.9841,10.453433 V 53.591433 h -6.65606 V 78.125 h 6.65606 v -6.186725 l 2.77336,-2.858694 z"
           style="font-style:normal;font-variant:normal;font-weight:bold;font-stretch:normal;font-size:42.6670723px;font-family:Montserrat;-inkscape-font-specification:'Montserrat, Bold';font-variant-ligatures:normal;font-variant-caps:small-caps;font-variant-numeric:normal;font-feature-settings:normal;text-align:start;letter-spacing:-3.62945271;writing-mode:lr-tb;text-anchor:start;fill:#000000;stroke-width:0.67844689"
           id="path31"
           inkscape:connector-curvature="0" />
      </g>
      <g
         aria-label="Manager"
         style="font-style:normal;font-variant:normal;font-weight:bold;font-stretch:normal;font-size:42.33237076px;line-height:1.25;font-family:Montserrat;-inkscape-font-specification:'Montserrat, Bold';font-variant-ligatures:normal;font-variant-caps:small-caps;font-variant-numeric:normal;font-feature-settings:normal;text-align:start;letter-spacing:0px;word-spacing:0px;writing-mode:lr-tb;text-anchor:start;fill:#000000;fill-opacity:1;fill-rule:nonzero;stroke:none;stroke-width:0.67844689"
         id="text1510">
        <path
           d="m 172.46926,119.66083 -0.0847,-29.632662 h -5.63021 L 155.83264,108.44275 144.74156,90.028168 h -5.67254 v 29.632662 h 6.43452 v -17.39861 l 8.67814,14.26601 h 3.09026 l 8.72047,-14.647 0.0423,17.7796 z"
           style="font-style:normal;font-variant:normal;font-weight:bold;font-stretch:normal;font-size:42.33237076px;font-family:Montserrat;-inkscape-font-specification:'Montserrat, Bold';font-variant-ligatures:normal;font-variant-caps:small-caps;font-variant-numeric:normal;font-feature-settings:normal;text-align:start;letter-spacing:-2.76127887px;writing-mode:lr-tb;text-anchor:start;fill:#000000;stroke-width:0.67844689"
           id="path34"
           inkscape:connector-curvature="0" />
        <path
           d="m 194.72972,119.66083 h 6.60385 L 190.36949,95.319714 h -6.60385 l -10.92175,24.341116 h 6.47685 l 2.03195,-4.82589 h 11.38741 z m -11.34507,-9.65178 3.68291,-8.80514 3.64059,8.80514 z"
           style="font-style:normal;font-variant:normal;font-weight:bold;font-stretch:normal;font-size:42.33237076px;font-family:Montserrat;-inkscape-font-specification:'Montserrat, Bold';font-variant-ligatures:normal;font-variant-caps:small-caps;font-variant-numeric:normal;font-feature-settings:normal;text-align:start;letter-spacing:-2.76127887px;writing-mode:lr-tb;text-anchor:start;fill:#000000;stroke-width:0.67844689"
           id="path36"
           inkscape:connector-curvature="0" />
        <path
           d="M 218.14242,95.319714 V 108.78141 L 206.92434,95.319714 h -5.50321 v 24.341116 h 6.56152 v -13.41936 l 11.21808,13.41936 h 5.5032 V 95.319714 Z"
           style="font-style:normal;font-variant:normal;font-weight:bold;font-stretch:normal;font-size:42.33237076px;font-family:Montserrat;-inkscape-font-specification:'Montserrat, Bold';font-variant-ligatures:normal;font-variant-caps:small-caps;font-variant-numeric:normal;font-feature-settings:normal;text-align:start;letter-spacing:-2.76127887px;writing-mode:lr-tb;text-anchor:start;fill:#000000;stroke-width:0.67844689"
           id="path38"
           inkscape:connector-curvature="0" />
        <path
           d="m 246.67005,119.66083 h 6.60385 L 242.30982,95.319714 h -6.60385 l -10.92175,24.341116 h 6.47685 l 2.03195,-4.82589 h 11.38741 z m -11.34507,-9.65178 3.68291,-8.80514 3.64059,8.80514 z"
           style="font-style:normal;font-variant:normal;font-weight:bold;font-stretch:normal;font-size:42.33237076px;font-family:Montserrat;-inkscape-font-specification:'Montserrat, Bold';font-variant-ligatures:normal;font-variant-caps:small-caps;font-variant-numeric:normal;font-feature-settings:normal;text-align:start;letter-spacing:-2.76127887px;writing-mode:lr-tb;text-anchor:start;fill:#000000;stroke-width:0.67844689"
           id="path40"
           inkscape:connector-curvature="0" />
        <path
           d="m 268.94969,113.90363 c -1.18531,0.50798 -2.41295,0.76198 -3.80991,0.76198 -4.31791,0 -7.23884,-2.92094 -7.23884,-7.15417 0,-4.3179 3.0056,-7.19651 7.15417,-7.19651 2.41295,0 4.48723,0.88898 6.1382,2.83627 l 4.40256,-3.936907 c -2.41294,-2.920934 -5.8842,-4.360235 -10.62542,-4.360235 -8.00082,0 -13.80036,5.333882 -13.80036,12.657382 0,7.28116 5.67254,12.61504 13.84269,12.61504 3.42892,0 7.3235,-1.10064 10.03277,-3.09026 v -9.86344 h -6.09586 z"
           style="font-style:normal;font-variant:normal;font-weight:bold;font-stretch:normal;font-size:42.33237076px;font-family:Montserrat;-inkscape-font-specification:'Montserrat, Bold';font-variant-ligatures:normal;font-variant-caps:small-caps;font-variant-numeric:normal;font-feature-settings:normal;text-align:start;letter-spacing:-2.76127887px;writing-mode:lr-tb;text-anchor:start;fill:#000000;stroke-width:0.67844689"
           id="path42"
           inkscape:connector-curvature="0" />
        <path
           d="m 284.65392,114.53861 v -4.78356 h 11.09109 v -4.86822 h -11.09109 v -4.4449 h 12.53039 v -5.122216 h -19.13424 v 24.341116 h 19.59989 v -5.12222 z"
           style="font-style:normal;font-variant:normal;font-weight:bold;font-stretch:normal;font-size:42.33237076px;font-family:Montserrat;-inkscape-font-specification:'Montserrat, Bold';font-variant-ligatures:normal;font-variant-caps:small-caps;font-variant-numeric:normal;font-feature-settings:normal;text-align:start;letter-spacing:-2.76127887px;writing-mode:lr-tb;text-anchor:start;fill:#000000;stroke-width:0.67844689"
           id="path44"
           inkscape:connector-curvature="0" />
        <path
           d="m 315.08652,119.66083 h 7.1965 l -5.41854,-7.66216 c 3.1326,-1.4393 4.95289,-4.10624 4.95289,-7.70449 0,-5.630208 -4.27557,-8.974466 -10.96409,-8.974466 H 299.7622 v 24.341116 h 6.68852 v -6.51919 h 4.10624 z m 0,-15.36665 c 0,2.37061 -1.5663,3.76758 -4.69889,3.76758 h -3.93691 v -7.53516 h 3.93691 c 3.13259,0 4.69889,1.35463 4.69889,3.76758 z"
           style="font-style:normal;font-variant:normal;font-weight:bold;font-stretch:normal;font-size:42.33237076px;font-family:Montserrat;-inkscape-font-specification:'Montserrat, Bold';font-variant-ligatures:normal;font-variant-caps:small-caps;font-variant-numeric:normal;font-feature-settings:normal;text-align:start;letter-spacing:-2.76127887px;writing-mode:lr-tb;text-anchor:start;fill:#000000;stroke-width:0.67844689"
           id="path46"
           inkscape:connector-curvature="0" />
      </g>
    </g>
  </g>
</svg>
